<?xml version="1.0" encoding="UTF-8" standalone="no"?>
<svg
   version="1.1"
   viewBox="0 0 800 800"
   xml:space="preserve"
   id="svg5"
   sodipodi:docname="logo-snt-light.svg"
   inkscape:version="1.4 (86a8ad7, 2024-10-11)"
   xmlns:inkscape="http://www.inkscape.org/namespaces/inkscape"
   xmlns:sodipodi="http://sodipodi.sourceforge.net/DTD/sodipodi-0.dtd"
   xmlns:xlink="http://www.w3.org/1999/xlink"
   xmlns="http://www.w3.org/2000/svg"
   xmlns:svg="http://www.w3.org/2000/svg"><defs
   id="defs5"><linearGradient
     id="swatch2"
     inkscape:swatch="solid"><stop
       style="stop-color:#c8c8c8;stop-opacity:1;"
       offset="0"
       id="stop2" /></linearGradient><linearGradient
     inkscape:collect="always"
     xlink:href="#swatch2"
     id="linearGradient2"
     x1="0"
     y1="400"
     x2="800"
     y2="400"
     gradientUnits="userSpaceOnUse" /></defs><sodipodi:namedview
   id="namedview5"
   pagecolor="#ffffff"
   bordercolor="#000000"
   borderopacity="0.25"
   inkscape:showpageshadow="2"
   inkscape:pageopacity="0.0"
   inkscape:pagecheckerboard="0"
   inkscape:deskcolor="#d1d1d1"
   showgrid="false"
   inkscape:zoom="1.03125"
   inkscape:cx="264.24242"
   inkscape:cy="360.24242"
   inkscape:window-width="1920"
   inkscape:window-height="1027"
   inkscape:window-x="-8"
   inkscape:window-y="-8"
   inkscape:window-maximized="1"
   inkscape:current-layer="svg5" />
	
	<g
   id="circle"
   style="fill:none;fill-opacity:1;stroke:#c8c8c8;stroke-opacity:1">
		<circle
   cx="400"
   cy="400"
   r="396"
   fill="none"
   stroke="#000000"
   stroke-width="8"
   id="circle1"
   style="fill:none;fill-opacity:1;stroke:#c8c8c8;stroke-opacity:1" />
		<circle
   cx="400"
   cy="400"
   r="384"
   fill="none"
   stroke="#000000"
   stroke-width="4"
   id="circle2"
   style="fill:none;fill-opacity:1;stroke:#c8c8c8;stroke-opacity:1" />
		<circle
   cx="400"
   cy="400"
   r="300"
   fill="none"
   stroke="#000000"
   stroke-width="4"
   id="circle3"
   style="fill:none;fill-opacity:1;stroke:#c8c8c8;stroke-opacity:1" />
		<circle
   cx="400"
   cy="400"
   r="288"
   fill="none"
   stroke="#000000"
   stroke-width="8"
   id="circle4"
   style="fill:none;fill-opacity:1;stroke:#c8c8c8;stroke-opacity:1" />
	</g><g
   id="text"
   style="fill:none;fill-opacity:1">
		<path
   id="title"
   d="m 93,309.72 a 320,320 0 0 1 614,0"
   stroke="none"
   fill="none"
   style="fill:none;fill-opacity:1" />
		<path
   id="tag"
   d="m 45,329.16 a 362,362 0 1 0 710,0"
   stroke="none"
   fill="none"
   style="fill:none;fill-opacity:1" />
		<text
   font-size="63px"
   font-family="Baskerville"
   color="#000000"
   id="text5"
   style="fill:#c8c8c8;fill-opacity:1">			 <textPath
   xlink:href="#title"
   id="textPath4">✽ SECURITY NODE TEAM ✽</textPath>			 <textPath
   xlink:href="#tag"
   id="textPath5">INFORMATION · TECHNOLOGY · DEFENSE</textPath>		</text>
	</g>
<g
   id="g1"
   style="display:inline;fill:#c8c8c8;fill-opacity:1"
   inkscape:label="long"><path
     id="path5"
     style="fill:#c8c8c8;stroke-width:9.38832;stroke-dasharray:none;fill-opacity:1"
     d="m 435.72852,134.42383 -66.49024,21.42187 -9.93945,1.71289 -3.94141,-0.51367 -4.2832,-2.91406 -9.08399,7.36914 -9.08203,4.79883 -14.39453,3.08398 -27.24609,0.51367 -2.91406,-0.85546 -0.85743,6.51171 v 10.625 l 4.28516,17.65039 2.57031,-7.54101 2.22656,-2.74219 6.85547,-2.91211 11.31055,0.16992 17.65039,6.6836 17.13672,8.22656 8.39648,2.57031 13.88086,0.17188 4.79883,-2.91406 6.16797,-6.6836 16.45117,14.39453 11.31055,-8.05273 10.2832,-5.48438 10.62305,-2.57031 12.50976,0.85742 14.05274,4.28321 8.05469,5.3125 -7.19727,-10.28125 -7.19726,-4.62696 -12.85352,-5.99804 -14.73633,-5.3125 -16.96679,-6.85547 10.11132,-8.91016 12.85157,-7.02734 38.55859,-15.25 -17.13672,1.71289 -16.45117,4.28515 -16.2793,4.62696 -16.28125,4.11133 -7.02539,0.85742 -0.17187,-3.08399 z m -84.3125,31.70312 2.05664,5.48438 3.42773,2.39844 0.16992,1.88476 -6.33984,-0.17187 -4.45508,2.05664 -16.2793,-0.16992 0.51368,-3.25782 z" /><path
     style="fill:#c8c8c8;stroke-width:9.38832;stroke-dasharray:none;fill-opacity:1"
     d="m 319.88486,202.6279 -22.6203,13.02381 -4.11278,-0.34273 -2.74187,1.0282 -3.42731,3.08458 -5.14097,-3.08458 -3.08459,-5.14098 -5.14099,-3.08459 -4.79823,1.37092 -7.54011,3.08459 -5.14098,3.08459 -6.5119,-3.42732 3.08459,5.82644 6.5119,0.68547 8.56829,-3.42732 5.48371,2.05639 2.74185,4.11278 4.1128,1.37093 1.02819,3.08459 -5.14099,6.16916 -7.54009,-0.34272 -10.28196,-2.39913 -5.4837,2.0564 -7.19737,-6.5119 -6.51191,-5.14099 -6.85464,-1.37092 -8.56829,2.39911 -3.42733,2.74187 -2.74185,-0.34274 -6.16918,-4.79824 -5.14097,-1.37093 -4.11278,3.08459 -5.14099,5.4837 -4.4555,6.5119 -7.5401,-0.68545 9.59648,3.42732 5.14099,-5.14098 6.5119,-4.11279 11.65288,6.5119 6.16918,-1.71365 6.16918,-3.77005 5.82643,4.45551 4.11279,5.48371 2.05638,6.85463 -3.08458,4.1128 -7.54011,-2.39912 -8.22556,-3.77006 -6.5119,0.34273 -4.79825,4.11278 -2.05638,3.42733 -3.42733,1.71365 -7.5401,-3.08458 8.5683,8.5683 5.14098,-1.71367 7.54009,-6.16917 6.51191,2.05638 4.11278,5.82646 6.5119,3.42731 7.19737,-3.08459 6.16918,-7.19737 4.45552,-8.91102 4.45551,-4.11279 3.42731,0.68547 9.93924,6.85463 6.5119,1.71366 6.51191,-9.25376 2.39912,-7.54009 3.77004,-4.11278 11.65289,-4.45552 10.28196,-2.39913 11.65288,-4.79824 1.37093,-3.42732 -1.37093,-5.14097 z"
     id="path7" /><path
     style="fill:#c8c8c8;stroke-width:9.38832;stroke-dasharray:none;fill-opacity:1"
     d="m 367.86731,213.25259 -21.59211,8.5683 -17.82205,7.19737 -18.85025,4.79824 -7.5401,0.68546 -1.0282,-1.37092 11.65289,-3.77006 19.87844,-12.33834 8.5683,-7.54011 3.77006,-2.74185 5.14097,3.08459 5.48371,1.37093 z"
     id="path8" /><path
     style="fill:#c8c8c8;stroke-width:9.38832;stroke-dasharray:none;fill-opacity:1"
     d="m 389.80215,256.77953 -3.77004,10.62469 -1.37093,10.96742 2.05638,10.62469 v 4.11278 l -3.77004,-3.08459 v -3.42731 l -3.08459,-0.68547 -3.08459,1.37093 -4.45551,4.45551 -3.42732,0.68546 -3.77005,-0.68546 -2.39912,-2.74185 -3.42731,-1.37093 -1.02821,1.71366 1.71366,5.14098 -2.74185,6.85463 -9.25376,4.79825 4.45551,-7.19737 -0.34272,-2.74185 -2.39913,-1.37093 h -3.42733 l -0.68545,-2.05639 2.05638,-3.42732 -0.68546,-1.71366 -2.74185,0.34274 -2.39912,-3.08459 -1.0282,-2.39913 -1.37093,-2.39912 -3.08459,-1.71366 -5.14097,6.16917 -3.77005,0.34274 -3.08459,-2.74187 h -2.05639 l -3.08459,3.77006 -3.42731,6.85464 -0.34274,3.77005 -4.11278,-1.71366 v -4.45551 l 3.77005,-7.54011 3.77004,-4.79825 1.71368,-0.68546 v -3.77004 l 2.39912,-2.0564 4.79823,-0.68547 3.08459,0.68547 1.02821,-2.39912 -3.08459,-3.08459 -0.68547,-1.37092 -1.71366,1.02819 -2.74186,-2.39912 -2.05638,-2.39913 -5.82644,1.71366 -4.79825,3.77006 -2.39912,2.39912 -1.71366,0.34273 1.02819,-4.45551 3.42732,-4.45552 6.5119,-3.08459 4.11278,-1.37092 2.74187,-2.39912 4.4555,-0.68547 3.42732,3.08459 2.0564,4.11278 0.34272,3.77006 2.74187,2.05638 2.05638,-0.34272 0.34274,-3.08459 3.08459,-5.48372 -1.37093,-4.79824 -2.74187,-2.05639 -4.4555,-1.71367 h -2.74185 l 1.02819,-2.74185 4.45551,0.34273 5.48371,0.68546 2.74186,3.08459 2.39912,3.42732 4.79824,2.0564 2.74186,4.79824 -0.68546,4.11278 -4.11279,2.74185 -3.77005,1.71366 -1.02819,2.39912 0.68546,2.39913 2.05639,0.34274 v 3.42731 l 3.77005,2.39913 5.14097,-0.34273 2.39913,-2.39912 3.42733,4.4555 4.4555,-0.34272 2.39913,-5.14099 2.05639,-5.4837 3.77005,-4.79824 z"
     id="path9" /><path
     style="fill:#c8c8c8;stroke-width:9.38832;stroke-dasharray:none;fill-opacity:1"
     d="m 443.95378,269.80334 14.05202,-1.37093 14.73746,3.77006 14.39474,5.82643 5.14098,3.77006 -8.91103,0.34272 -9.25375,2.74187 -7.19737,5.48371 -2.39913,8.91103 1.71366,5.82644 -0.68547,1.37093 -5.14097,-6.51192 -9.59649,-11.65288 -4.45552,-5.82644 -4.11278,-4.79824 -1.37094,-4.11278 -0.34272,-3.08459 z"
     id="path10" /><path
     style="fill:#c8c8c8;stroke-width:9.38832;stroke-dasharray:none;fill-opacity:1"
     d="m 483.02522,193.03141 5.14098,-6.85463 7.19737,-4.45552 7.19737,-1.0282 8.56828,0.34273 5.82646,3.08459 -1.37093,2.74185 -3.08459,4.11279 -4.11279,-0.34274 -6.16917,-1.37093 h -3.77004 l -9.5965,1.71367 z"
     id="path11" /><path
     style="fill:#c8c8c8;stroke-width:9.38832;stroke-dasharray:none;fill-opacity:1"
     d="m 502.90366,214.62352 -6.16916,-3.77006 -5.14099,-1.37093 -6.5119,1.71367 -6.16917,4.45551 -2.74186,3.77005 7.88284,-1.71365 7.19737,-0.68547 6.85463,2.74185 2.74186,-1.02819 z"
     id="path12" /><path
     style="fill:#c8c8c8;stroke-width:9.38832;stroke-dasharray:none;fill-opacity:1"
     d="m 421.33348,311.27389 -2.74185,-5.82644 1.02819,-5.82644 3.42732,-3.08458 6.5119,0.34274 9.93924,3.42731 4.11278,3.42732 1.37093,5.14098 -1.71367,4.45551 -4.79824,5.48371 -4.79824,4.45551 -2.39913,5.48371 0.34273,7.19737 2.74185,3.08459 3.42733,3.08459 v 3.77004 l 2.39912,2.74186 4.79825,1.71366 8.22556,0.68547 2.39912,-2.39913 1.0282,-2.74186 -0.34273,-3.77004 3.08458,-2.74186 5.14098,-0.34273 2.39913,3.08459 3.42731,1.02819 4.45551,1.37093 1.37093,2.39913 -8.22556,-1.02821 -4.45552,3.08459 -2.74185,4.45552 -2.74185,2.05638 1.02819,2.39913 h 7.19737 l 6.5119,0.34274 2.74185,2.39912 1.02821,4.11278 -2.0564,0.34273 v 2.39912 l -1.02819,6.51191 -1.71366,-5.14098 -3.08459,-1.71365 -1.37093,-2.74187 -0.68546,-2.39912 h -4.45551 l -2.74186,1.71366 -2.05639,-1.71366 -2.0564,2.74186 2.0564,3.42732 0.34273,4.4555 -0.34273,4.45553 -4.79825,7.54009 -5.48371,4.11278 3.77006,-7.19737 0.68546,-5.14097 -2.74186,-1.37093 -1.71366,-1.37092 -1.02819,-3.42733 0.68547,-2.74185 2.74185,-1.71366 -0.34273,-1.71365 -1.37093,-2.39913 -2.0564,-1.37093 -2.74185,-1.71366 -2.0564,-0.34272 -2.05638,0.34272 -2.74185,-0.34272 v -1.37093 l -1.37093,-2.0564 h -1.37093 l -3.08459,2.0564 -3.42732,1.02819 -2.05638,-2.39913 -1.37093,-1.71365 -2.74187,-1.02819 -2.39912,1.37093 -4.11278,1.71365 -2.39912,1.37092 2.05639,-5.4837 5.48372,-5.14098 6.5119,-0.68547 3.77004,0.34274 v -2.74186 l -3.08457,-2.74185 -2.0564,-2.74185 -0.68547,-4.79825 2.0564,-2.74186 1.37093,-2.05638 0.68545,-3.08459 -0.68545,-5.82644 c 0,0 -1.71367,-1.71366 -2.39912,-3.08459 -0.68547,-1.37093 -3.42733,-5.14099 -3.42733,-5.14099 z"
     id="path13" /><path
     style="fill:#c8c8c8;stroke-width:9.38832;stroke-dasharray:none;fill-opacity:1"
     d="m 381.58212,608.64808 -3.15053,4.60461 -4.11991,3.87758 -5.33166,1.45409 -5.57401,1.69643 -2.42348,0.9694 4.36227,5.81634 5.57401,9.69392 c 0,0 4.6046,9.69393 4.6046,10.66332 0,0.9694 1.21174,13.81384 1.21174,13.81384 l -0.4847,5.0893 0.24235,4.84696 5.33166,-11.148 5.57401,-8.23984 7.51279,-6.78574 7.27044,-5.08931 6.30105,-1.93879 3.63522,-3.15051 -5.33166,-4.36227 -3.15053,-4.36227 -1.93877,-3.87756 -1.21174,-5.08931 v -2.90818 l -3.87758,2.66583 -3.15052,5.57401 -2.66583,8.96687 c 0,0 -2.66582,6.54339 -3.15052,7.51278 -0.48469,0.9694 -3.63522,7.75515 -3.63522,7.75515 l -1.93879,5.33164 -0.48469,-7.99747 0.24234,-12.1174 v -13.08679 z"
     id="path14" /><path
     style="fill:#c8c8c8;stroke-width:9.38832;stroke-dasharray:none;fill-opacity:1"
     d="m 366.79889,393.44304 -20.35724,-24.71949 -17.93375,-16.47967 -24.71949,-12.1174 -21.81133,-7.75514 -27.62768,0.4847 9.69392,4.84696 7.75515,3.87757 6.78573,5.81635 -1.93877,2.42348 -19.38785,3.39288 -27.14297,12.11739 -13.57149,10.17862 -14.54088,19.87254 -4.84697,13.57149 10.17861,-10.66331 11.63272,-4.84697 -7.75514,15.99498 -3.87758,32.47462 4.36227,18.90315 9.69392,12.6021 v -11.14801 l 4.36227,-6.30105 39.26037,43.13795 23.75012,19.38784 12.6021,3.39288 -9.69394,-9.20924 -1.93877,-8.23982 12.6021,6.30104 30.53584,6.78575 27.14299,15.51027 17.93374,22.29602 8.72454,30.05115 1.45408,26.65828 -1.45408,20.84194 8.72452,-23.26542 1.93879,-30.05114 -5.33166,-29.56646 -10.66331,-22.29603 -28.59707,-25.20419 -30.53585,-14.54088 -47.01551,-19.87253 9.20922,-7.75514 8.23983,-12.1174 1.45409,-11.63271 -0.9694,-14.05618 -5.33164,-11.6327 -7.75515,-4.84697 -7.75513,0.4847 -9.20923,5.81636 8.23984,-0.4847 5.33166,1.45407 3.39286,6.78576 -0.96939,6.30105 -7.75513,7.75513 -10.66331,1.45409 -9.69393,-4.36227 -5.33165,-11.148 v -12.1174 l 7.75513,-12.6021 15.99497,-9.69393 21.81132,-2.42347 28.11237,13.08679 10.66332,13.0868 20.35723,38.77568 v -16.47967 l 3.39287,-13.57149 4.84697,-10.17861 z"
     id="path15" /><path
     style="fill:#c8c8c8;stroke-width:9.38832;stroke-dasharray:none;fill-opacity:1"
     d="m 521.41692,439.97387 5.81635,3.39286 1.93878,5.81636 -8.72452,6.78574 -44.59204,29.08176 12.1174,-11.6327 17.93376,-13.57149 10.17861,-11.6327 z"
     id="path16" /><path
     style="fill:#c8c8c8;stroke-width:9.38832;stroke-dasharray:none;fill-opacity:1"
     d="m 533.04963,469.05562 -0.9694,-7.27044 -2.90818,-3.87757 -2.90816,-0.48469 -7.75515,12.1174 -19.87252,20.35724 -35.38282,28.11237 28.59706,-16.96437 19.87255,-15.02558 z"
     id="path17" /><path
     id="path18"
     style="fill:#c8c8c8;stroke-width:9.38832;stroke-dasharray:none;fill-opacity:1"
     d="m 520.64844,178.1543 -3.87696,0.48437 -2.42382,1.45508 4.8457,4.36133 1.45508,4.36328 -1.93946,2.42383 -4.8457,3.39258 -3.8789,2.42382 7.27148,4.84571 12.11719,15.51172 8.24023,14.05468 4.8457,11.63282 -0.48437,5.33203 -3.39258,-7.75586 -8.24023,-12.11719 -9.69336,-7.75391 -5.81641,-3.39257 0.48438,-3.87891 -3.39258,-3.87695 -4.36328,-1.93946 -2.42188,0.48438 -1.93945,1.45508 3.39258,4.36132 v 3.39454 l -1.9375,3.39257 -3.87891,1.9375 -2.9082,0.48633 0.48437,3.87696 5.81641,1.93945 3.39258,-1.93945 6.30273,10.6621 3.39258,13.57227 -0.48438,15.50977 -3.8789,15.99609 -8.72461,14.54101 -12.11719,12.11719 -17.93359,9.69336 -11.14844,-10.17773 -12.60156,-12.60352 -11.14844,-14.54101 -6.78516,-16.47852 v -15.50977 l 5.33203,-15.02539 13.08594,-11.14843 12.11719,1.45312 5.33203,8.72461 1.45508,12.60156 v 8.72461 l 6.30078,-12.60156 v -14.54102 l -7.75586,-12.60156 -10.17773,-6.30078 -20.8418,-3.8789 -19.38867,2.9082 -13.57227,8.24023 -11.63086,17.9336 -5.8164,18.90429 14.53906,-14.05664 -3.87695,13.57227 -3.87696,16.96289 -0.48437,24.7207 1.9375,12.60156 4.84765,-13.57226 4.36133,-2.9082 c 0,0 2.42351,20.35713 2.90821,23.75 0.48469,3.39286 8.24023,28.11328 8.24023,28.11328 l 0.9707,-6.30078 0.48438,-6.78516 h 1.9375 l 2.42383,4.8457 2.42382,-10.66211 -6.78515,-10.17968 -2.42383,-11.14844 5.81641,-7.26953 13.57226,-2.42383 11.14649,7.27148 5.8164,9.69336 -4.36133,11.63281 -6.30078,5.81641 -4.84765,4.36133 4.84765,10.66406 2.42188,7.26953 11.63281,-1.9375 v -7.75586 L 462,336.16602 l 6.78516,2.42382 2.9082,3.39258 7.27148,1.9375 2.42383,4.36328 1.45313,7.75586 -6.78516,-5.8164 h -5.81641 l -6.30078,6.30078 8.23828,-0.48438 4.36329,1.9375 3.87695,6.78711 -2.42383,2.90821 1.45508,5.8164 -1.45508,6.78516 -8.23828,8.24023 1.45312,-7.27148 -0.96875,-5.81641 -1.45507,-5.33203 -5.33008,-3.39258 -2.9082,-0.48437 1.45312,6.30078 0.96875,3.39258 -4.36133,4.84765 -5.8164,15.99414 -1.45508,8.72461 -4.84571,16.96485 -12.60156,15.99609 -16.48047,2.9082 -12.11718,-3.39453 -5.33204,-11.14648 0.96875,-15.51172 10.17969,-13.57031 11.63281,0.96875 6.78516,9.20898 1.93945,2.9082 -1.45507,-15.99414 -9.20899,-10.17968 -14.54101,-4.36133 -13.08594,0.96875 -16.96485,11.63281 -8.7246,16.48047 -8.72461,18.90234 -1.45313,24.23438 5.81641,16.96484 15.99414,15.50977 18.41797,9.69531 25.20507,0.96875 21.32618,-7.75586 20.35742,-15.02539 10.66211,-15.02539 11.14844,-16.96484 6.7871,-18.41797 2.90821,-15.99414 v -8.24024 l 3.39258,10.17774 v 10.17968 l -2.42383,8.24024 -6.78516,14.54101 -8.72461,11.63086 18.90235,-13.08594 10.17773,-10.17773 7.75586,-5.33203 4.36328,0.96875 0.48438,7.27148 -1.45508,4.36133 6.30078,3.39258 4.36328,2.9082 3.87695,5.81641 -0.48437,6.78516 -1.93945,3.8789 2.9082,1.45313 2.42383,7.75586 -1.9375,4.36132 -3.39453,1.93946 2.9082,3.39258 0.9707,3.8789 -11.14844,25.6875 -21.32617,27.62891 -23.75,24.71875 L 462,578.0293 l -15.99414,12.60156 -25.20508,14.05664 29.08203,-5.81641 36.35157,-15.50976 30.05078,-23.75 27.14453,-30.53711 25.6875,-41.19922 6.30273,-9.20898 4.8457,-3.87696 3.87696,-5.33203 0.9707,-20.8418 2.9082,-26.6582 6.78516,-11.14844 6.78516,-5.33203 9.21093,7.75586 10.66211,17.9336 7.75586,30.53515 4.84571,33.44531 6.30273,-27.14257 2.9082,-31.02149 -3.8789,-35.38281 -4.84571,-24.23438 -7.27148,-15.99609 -3.39258,-9.20898 -0.48437,-8.24024 3.39258,-4.36133 5.33203,-1.45312 -13.57227,-20.84375 35.38281,39.26172 11.63282,17.44922 10.17968,21.32617 -3.39453,-29.08203 -8.23828,-26.65821 -12.60352,-24.71875 -18.90234,-26.17382 -21.81055,-23.75 -37.32226,-35.86719 -37.32227,-33.44531 -8.24023,-7.26954 v -4.84765 l -2.42188,-3.39258 z m 0.2832,12.92773 42.16992,42.89649 47.25782,45.80273 36.10937,47.01563 7.99805,16.96484 -16.23828,-21.81055 -54.28516,-59.37695 -32.23242,-27.86914 21.81054,36.10937 28.59766,56.95313 19.87305,59.85937 8.72461,39.01758 -3.63672,-3.63476 -11.875,-38.29102 -20.59961,-56.22461 -23.02344,-47.01562 -12.35937,-18.9043 6.05859,38.77734 3.87891,34.16992 1.69531,70.76563 -1.21094,26.17383 -4.84765,23.75 -9.93555,31.50586 -13.81445,24.71875 -25.20313,30.77929 -31.26367,28.83789 -26.17383,15.26954 39.98828,-33.44532 25.20313,-28.5957 23.99218,-38.29102 8.24024,-34.65625 6.78515,-45.32031 -0.96875,-44.34961 -5.33203,-69.55273 -2.42383,-19.38867 -6.54296,29.80859 -6.54297,37.08008 -8.48242,30.29297 -12.84375,29.08203 -10.42188,18.90234 -10.41992,12.11914 9.45117,-18.90429 10.66406,-25.93164 6.30078,-20.8418 5.33204,-20.8418 2.17968,-29.32422 -2.9082,5.81641 -16.96289,15.99609 -17.69141,13.32813 -5.57422,-6.78516 10.17774,-5.08984 8.48242,-6.0586 24.47656,-26.17382 12.35938,-23.99219 3.8789,-18.41797 -0.9707,-19.14649 -4.11914,-15.75195 -7.51367,-14.05664 -9.20899,-12.84375 -6.30078,-6.05859 z m -10.17773,30.05078 10.66211,9.45313 14.54101,23.26562 7.99805,15.75196 -0.72656,9.20898 -3.87696,-7.75586 -6.30273,-14.54102 -0.72656,23.50782 -7.75391,18.17773 -13.57227,17.9336 -24.71875,15.75195 -3.15234,-2.9082 v -3.1504 l 12.60352,-7.27148 13.57031,-13.32812 12.36133,-19.63086 3.39257,-13.08594 0.96875,-21.56836 -7.02734,-16.96484 z" /></g></svg>
